<?xml version="1.0" encoding="UTF-8" standalone="no"?>
<!-- Created with Inkscape (http://www.inkscape.org/) -->

<svg
   xmlns:dc="http://purl.org/dc/elements/1.1/"
   xmlns:cc="http://creativecommons.org/ns#"
   xmlns:rdf="http://www.w3.org/1999/02/22-rdf-syntax-ns#"
   xmlns:svg="http://www.w3.org/2000/svg"
   xmlns="http://www.w3.org/2000/svg"
   xmlns:sodipodi="http://sodipodi.sourceforge.net/DTD/sodipodi-0.dtd"
   xmlns:inkscape="http://www.inkscape.org/namespaces/inkscape"
   width="110mm"
   height="110mm"
   viewBox="0 0 110 110"
   version="1.1"
   id="svg8"
   inkscape:version="0.92.3 (2405546, 2018-03-11)"
   sodipodi:docname="audio_broadcast.svg"
   inkscape:export-filename="/home/runar/StudioProjects/audio-broadcast/audio_broadcast.png"
   inkscape:export-xdpi="131.67999"
   inkscape:export-ydpi="131.67999">
  <defs
     id="defs2" />
  <sodipodi:namedview
     id="base"
     pagecolor="#ffffff"
     bordercolor="#666666"
     borderopacity="1.0"
     inkscape:pageopacity="0.0"
     inkscape:pageshadow="2"
     inkscape:zoom="2.7326923"
     inkscape:cx="130.95659"
     inkscape:cy="147.60896"
     inkscape:document-units="mm"
     inkscape:current-layer="layer1"
     showgrid="false"
     inkscape:window-width="3200"
     inkscape:window-height="1671"
     inkscape:window-x="0"
     inkscape:window-y="55"
     inkscape:window-maximized="1" />
  <metadata
     id="metadata5">
    <rdf:RDF>
      <cc:Work
         rdf:about="">
        <dc:format>image/svg+xml</dc:format>
        <dc:type
           rdf:resource="http://purl.org/dc/dcmitype/StillImage" />
        <dc:title />
      </cc:Work>
    </rdf:RDF>
  </metadata>
  <g
     inkscape:label="Layer 1"
     inkscape:groupmode="layer"
     id="layer1"
     transform="translate(0,-187)">
    <circle
       style="color:#000000;clip-rule:nonzero;display:inline;overflow:visible;visibility:visible;opacity:1;isolation:auto;mix-blend-mode:normal;color-interpolation:sRGB;color-interpolation-filters:linearRGB;solid-color:#000000;solid-opacity:1;vector-effect:none;fill:none;fill-opacity:1;fill-rule:nonzero;stroke:#2700ab;stroke-width:1.79999995;stroke-linecap:butt;stroke-linejoin:miter;stroke-miterlimit:4;stroke-dasharray:none;stroke-dashoffset:0;stroke-opacity:1;color-rendering:auto;image-rendering:auto;shape-rendering:auto;text-rendering:auto;enable-background:accumulate"
       id="path823"
       cx="55"
       cy="242"
       r="48.4799"
       inkscape:export-xdpi="49.380001"
       inkscape:export-ydpi="49.380001" />
    <g
       id="g827"
       transform="translate(-44.321649,123.04246)"
       style="fill:#2700ab;fill-opacity:1">
      <path
         style="color:#000000;clip-rule:nonzero;display:inline;overflow:visible;visibility:visible;opacity:1;isolation:auto;mix-blend-mode:normal;color-interpolation:sRGB;color-interpolation-filters:linearRGB;solid-color:#000000;solid-opacity:1;vector-effect:none;fill:#2700ab;fill-opacity:1;fill-rule:nonzero;stroke:none;stroke-width:0.26458332;stroke-linecap:butt;stroke-linejoin:miter;stroke-miterlimit:4;stroke-dasharray:none;stroke-dashoffset:0;stroke-opacity:1;color-rendering:auto;image-rendering:auto;shape-rendering:auto;text-rendering:auto;enable-background:accumulate"
         d="m 85.464399,111.57806 c 2.905109,-7.59285 6.09146,-16.154166 13.677475,-20.24045 5.981426,-3.102404 13.229676,-4.102108 19.762596,-2.324353 4.70901,1.252681 8.94295,4.545476 10.61565,9.217264 2.18973,4.651689 0.87051,9.904919 -0.62182,14.542689 -1.06794,2.82918 -2.57693,5.75526 -5.47098,7.06465 -4.22109,2.33918 -6.83575,6.53143 -9.80114,10.18452 -2.65597,3.38143 -4.72834,7.21332 -5.64998,11.4384 -0.96967,2.82938 -1.1295,6.70258 -4.43503,7.87376 -3.606443,1.53452 -6.970096,-1.17217 -8.802722,-4.06552 -0.989391,-1.48698 -3.566229,-3.88992 -3.261623,-5.07471 3.754545,0.3529 4.481413,4.76334 6.95517,6.90507 0.478579,1.09171 5.132965,2.21167 2.766025,2.30374 3.7401,-0.90095 3.98445,-5.29313 4.89309,-8.33655 1.22998,-4.65212 3.59956,-8.93216 6.7879,-12.52205 2.81668,-3.84731 5.96896,-7.70369 10.36547,-9.78349 3.44068,-2.98671 4.25958,-7.77953 5.19336,-12.0045 1.29226,-6.45067 -2.34153,-13.501738 -8.39743,-16.117585 -7.98966,-3.924127 -18.24527,-1.829395 -24.177072,4.772085 -4.125448,4.52479 -6.2303,10.37044 -8.351676,16.00479 -0.682419,0.0541 -1.364835,0.10825 -2.047263,0.16224 z"
         id="path817"
         inkscape:connector-curvature="0" />
      <path
         style="color:#000000;clip-rule:nonzero;display:inline;overflow:visible;visibility:visible;opacity:1;isolation:auto;mix-blend-mode:normal;color-interpolation:sRGB;color-interpolation-filters:linearRGB;solid-color:#000000;solid-opacity:1;vector-effect:none;fill:#2700ab;fill-opacity:1;fill-rule:nonzero;stroke:none;stroke-width:0.26458332;stroke-linecap:butt;stroke-linejoin:miter;stroke-miterlimit:4;stroke-dasharray:none;stroke-dashoffset:0;stroke-opacity:1;color-rendering:auto;image-rendering:auto;shape-rendering:auto;text-rendering:auto;enable-background:accumulate"
         d="m 69.102681,124.81274 c 0.248251,-5.31153 0.08684,-10.69206 -1.13877,-15.88677 4.323524,0.15445 2.493194,5.93959 4.035932,8.66395 0.773095,3.53131 1.471513,7.39367 4.148008,10.04406 0.244972,0.29426 2.502318,0.6782 1.056757,0.34022 3.295813,-0.31026 2.633592,-8.30863 6.348635,-5.52498 0.319714,0.72546 2.664228,3.39078 0.537773,2.7879 1.112334,-3.42389 5.445144,-6.24471 8.545928,-3.32429 1.490577,0.039 2.887031,3.23375 3.036431,1.5088 3.008999,-2.38939 3.722377,-6.52271 4.954115,-9.98094 -0.36721,-2.29402 2.0439,-5.99787 3.65374,-2.592 -0.19913,2.59915 0.98732,5.13268 0.99526,7.65876 -2.43587,1.39282 -2.52058,-3.97592 -2.97936,-5.67931 -0.63671,-1.39588 0.46966,-5.05591 1.12036,-2.12568 -1.01572,2.68309 -1.79933,5.39184 -2.78551,8.08741 -0.939962,2.58179 -2.728381,5.86916 -5.894571,5.7126 -2.189935,0.11247 -5.665818,-4.02507 -5.927435,-2.88404 -1.788349,2.20147 -4.602796,6.44777 -6.934021,2.14667 -1.595577,-1.78986 1.646974,-3.031 0.865744,-0.56836 -1.03206,2.93763 -3.502865,6.29997 -7.091776,5.25942 -3.582002,-0.7404 -3.93961,-4.74479 -4.842412,-7.60148 -0.997298,-3.84511 -1.61216,-7.78237 -2.734738,-11.59613 4.191519,-0.62825 2.009894,5.59624 2.884093,8.07867 -0.293759,2.13111 1.793775,7.72387 -1.854183,7.47552 z"
         id="path821"
         inkscape:connector-curvature="0" />
    </g>
  </g>
</svg>
